<svg width="25" height="24" viewBox="0 0 25 24" fill="none" xmlns="http://www.w3.org/2000/svg">
<path d="M21.5 6.25C21.5 4.45507 20.0449 3 18.25 3H6.75C4.95507 3 3.5 4.45507 3.5 6.25V17.75C3.5 19.5449 4.95507 21 6.75 21H12.5218C12.2253 20.5368 11.9858 20.0335 11.8135 19.5H6.75C5.7835 19.5 5 18.7165 5 17.75V8.5H20V11.3135C20.5335 11.4858 21.0368 11.7253 21.5 12.0218V6.25ZM6.75 4.5H18.25C19.2165 4.5 20 5.2835 20 6.25V7H5V6.25C5 5.2835 5.7835 4.5 6.75 4.5ZM23.5 17.5C23.5 14.4624 21.0376 12 18 12C14.9624 12 12.5 14.4624 12.5 17.5C12.5 20.5376 14.9624 23 18 23C21.0376 23 23.5 20.5376 23.5 17.5ZM18 17.5H20C20.2761 17.5 20.5 17.7239 20.5 18C20.5 18.2762 20.2761 18.5 20 18.5H17.5C17.2268 18.5 17.0048 18.2809 17.0001 18.0089L17 17.9999V14.9999C17 14.7238 17.2239 14.4999 17.5 14.4999C17.7761 14.4999 18 14.7238 18 14.9999L18 17.5Z" fill="#999999"/>
</svg>
