<svg width="82" height="40" viewBox="0 0 82 40" fill="none" xmlns="http://www.w3.org/2000/svg">
<path d="M2.72 8.13C3.16 8.13 3.55 8.04 3.89 7.86C4.23 7.68 4.49333 7.41 4.68 7.05C4.87333 6.68333 4.97 6.22667 4.97 5.68C4.97 5.11333 4.86333 4.65333 4.65 4.3C4.44333 3.94 4.16 3.67667 3.8 3.51C3.44667 3.33667 3.05 3.25 2.61 3.25C2.29 3.25 2.00333 3.29333 1.75 3.38C1.50333 3.46 1.29 3.55 1.11 3.65C0.963333 3.73667 0.866667 3.82 0.82 3.9C0.773333 3.98 0.75 4.08667 0.75 4.22V7.52H1.55V4.2C1.68333 4.12667 1.83333 4.06 2 4C2.16667 3.94 2.37 3.91 2.61 3.91C2.88333 3.91 3.13667 3.96667 3.37 4.08C3.61 4.19333 3.8 4.38 3.94 4.64C4.08667 4.89333 4.16 5.24 4.16 5.68C4.16 6.30667 4.01667 6.76333 3.73 7.05C3.45 7.33 3.07667 7.47 2.61 7.47C2.32333 7.47 2.07667 7.42333 1.87 7.33C1.67 7.23 1.50333 7.11667 1.37 6.99V7.73C1.48333 7.83 1.66333 7.92 1.91 8C2.16333 8.08667 2.43333 8.13 2.72 8.13ZM0.75 7.23V9.5C0.75 9.62667 0.786667 9.72 0.86 9.78C0.933333 9.84 1.04 9.87 1.18 9.87C1.26 9.87 1.33333 9.86 1.4 9.84C1.46667 9.82667 1.51667 9.81333 1.55 9.8V7.25L0.75 7.23ZM6.50898 5.82H5.70898V4.3C5.70898 4.14667 5.73565 4.02667 5.78898 3.94C5.84898 3.84667 5.94565 3.75667 6.07898 3.67C6.25232 3.55667 6.48898 3.46 6.78898 3.38C7.08898 3.29333 7.42232 3.25 7.78898 3.25C8.32232 3.25 8.58898 3.38333 8.58898 3.65C8.58898 3.71667 8.57898 3.78 8.55898 3.84C8.53898 3.89333 8.51232 3.94 8.47898 3.98C8.41232 3.96667 8.32565 3.95333 8.21898 3.94C8.11232 3.92667 8.00565 3.92 7.89898 3.92C7.59232 3.92 7.32232 3.95333 7.08898 4.02C6.85565 4.08 6.66232 4.15333 6.50898 4.24V5.82ZM6.50898 5.48V7.98C6.47565 7.99333 6.42565 8.00667 6.35898 8.02C6.29232 8.04 6.21898 8.05 6.13898 8.05C5.99898 8.05 5.89232 8.02333 5.81898 7.97C5.74565 7.91 5.70898 7.81667 5.70898 7.69V5.36L6.50898 5.48ZM13.2197 5.69C13.2197 6.18333 13.1264 6.61333 12.9397 6.98C12.753 7.34667 12.4897 7.63 12.1497 7.83C11.8097 8.03 11.4097 8.13 10.9497 8.13C10.4897 8.13 10.0864 8.03 9.73969 7.83C9.39969 7.63 9.13635 7.34667 8.94969 6.98C8.76302 6.61333 8.66969 6.18333 8.66969 5.69C8.66969 5.19 8.76302 4.76 8.94969 4.4C9.14302 4.03333 9.40969 3.75 9.74969 3.55C10.0964 3.35 10.4964 3.25 10.9497 3.25C11.403 3.25 11.7997 3.35 12.1397 3.55C12.4797 3.75 12.743 4.03333 12.9297 4.4C13.123 4.76 13.2197 5.19 13.2197 5.69ZM10.9497 3.91C10.503 3.91 10.1464 4.07 9.87969 4.39C9.61969 4.70333 9.48969 5.13667 9.48969 5.69C9.48969 6.25 9.61635 6.68667 9.86969 7C10.1297 7.31333 10.4897 7.47 10.9497 7.47C11.403 7.47 11.7564 7.31333 12.0097 7C12.2697 6.68 12.3997 6.24333 12.3997 5.69C12.3997 5.13667 12.2697 4.70333 12.0097 4.39C11.7564 4.07 11.403 3.91 10.9497 3.91ZM13.267 9.46C13.427 9.38667 13.5637 9.31 13.677 9.23C13.7904 9.15 13.877 9.03667 13.937 8.89C14.0037 8.75 14.037 8.55333 14.037 8.3V4.97H14.837V8.45C14.837 8.83667 14.7704 9.13667 14.637 9.35C14.5037 9.57 14.3504 9.72333 14.177 9.81C14.0037 9.90333 13.8537 9.95 13.727 9.95C13.5604 9.95 13.4437 9.9 13.377 9.8C13.317 9.70667 13.2804 9.59333 13.267 9.46ZM13.917 1.92C13.917 1.78 13.967 1.66333 14.067 1.57C14.167 1.47 14.2904 1.42 14.437 1.42C14.5904 1.42 14.7137 1.47 14.807 1.57C14.9004 1.66333 14.947 1.78 14.947 1.92C14.947 2.06 14.9004 2.18 14.807 2.28C14.7137 2.37333 14.5904 2.42 14.437 2.42C14.2904 2.42 14.167 2.37333 14.067 2.28C13.967 2.18 13.917 2.06 13.917 1.92ZM14.037 5.75V3.4C14.0704 3.38667 14.1204 3.37333 14.187 3.36C14.2604 3.34 14.337 3.33 14.417 3.33C14.557 3.33 14.6604 3.36 14.727 3.42C14.8004 3.47333 14.837 3.56667 14.837 3.7V5.86L14.037 5.75ZM16.1387 5.57L19.1587 5.16C19.132 4.79333 19.0053 4.49333 18.7787 4.26C18.552 4.02 18.2387 3.9 17.8387 3.9C17.4253 3.9 17.082 4.05 16.8087 4.35C16.542 4.64333 16.4087 5.06667 16.4087 5.62V5.84C16.4553 6.37333 16.6287 6.78 16.9287 7.06C17.2353 7.33333 17.652 7.47 18.1787 7.47C18.4587 7.47 18.712 7.42333 18.9387 7.33C19.1653 7.23667 19.3453 7.13667 19.4787 7.03C19.552 7.07667 19.6087 7.13333 19.6487 7.2C19.6953 7.26 19.7187 7.33 19.7187 7.41C19.7187 7.53667 19.6453 7.65667 19.4987 7.77C19.3587 7.87667 19.1687 7.96333 18.9287 8.03C18.6953 8.09667 18.432 8.13 18.1387 8.13C17.6253 8.13 17.1787 8.03667 16.7987 7.85C16.4253 7.66333 16.1353 7.38667 15.9287 7.02C15.7287 6.64667 15.6287 6.19333 15.6287 5.66C15.6287 5.28 15.682 4.94333 15.7887 4.65C15.902 4.35 16.0553 4.09667 16.2487 3.89C16.4487 3.68333 16.6853 3.52667 16.9587 3.42C17.232 3.30667 17.5287 3.25 17.8487 3.25C18.2553 3.25 18.612 3.33667 18.9187 3.51C19.232 3.68333 19.4753 3.92667 19.6487 4.24C19.8287 4.54667 19.9187 4.9 19.9187 5.3C19.9187 5.44667 19.8853 5.55333 19.8187 5.62C19.752 5.68 19.6587 5.71667 19.5387 5.73L16.1787 6.2L16.1387 5.57ZM21.3842 5.36V6.74C21.3842 7.00667 21.4609 7.19667 21.6142 7.31C21.7676 7.41667 21.9776 7.47 22.2442 7.47C22.3576 7.47 22.4842 7.45 22.6242 7.41C22.7642 7.37 22.8809 7.32333 22.9742 7.27C23.0142 7.31 23.0509 7.36 23.0842 7.42C23.1176 7.48 23.1342 7.55 23.1342 7.63C23.1342 7.77667 23.0476 7.89667 22.8742 7.99C22.7009 8.08333 22.4609 8.13 22.1542 8.13C21.6876 8.13 21.3076 8.02667 21.0142 7.82C20.7276 7.61333 20.5842 7.27 20.5842 6.79V5.36H21.3842ZM20.9942 3.48H23.0242C23.0442 3.50667 23.0642 3.55 23.0842 3.61C23.1042 3.67 23.1142 3.73333 23.1142 3.8C23.1142 3.90667 23.0876 3.99 23.0342 4.05C22.9809 4.11 22.9076 4.14 22.8142 4.14H20.9942V3.48ZM20.5842 5.66V2.04C20.6176 2.02667 20.6676 2.01333 20.7342 2C20.8076 1.98 20.8842 1.97 20.9642 1.97C21.1042 1.97 21.2076 2 21.2742 2.06C21.3476 2.11333 21.3842 2.20333 21.3842 2.33V5.66H20.5842ZM27.9384 5.69C27.9384 6.18333 27.8451 6.61333 27.6584 6.98C27.4718 7.34667 27.2084 7.63 26.8684 7.83C26.5284 8.03 26.1284 8.13 25.6684 8.13C25.2084 8.13 24.8051 8.03 24.4584 7.83C24.1184 7.63 23.8551 7.34667 23.6684 6.98C23.4818 6.61333 23.3884 6.18333 23.3884 5.69C23.3884 5.19 23.4818 4.76 23.6684 4.4C23.8618 4.03333 24.1284 3.75 24.4684 3.55C24.8151 3.35 25.2151 3.25 25.6684 3.25C26.1218 3.25 26.5184 3.35 26.8584 3.55C27.1984 3.75 27.4618 4.03333 27.6484 4.4C27.8418 4.76 27.9384 5.19 27.9384 5.69ZM25.6684 3.91C25.2218 3.91 24.8651 4.07 24.5984 4.39C24.3384 4.70333 24.2084 5.13667 24.2084 5.69C24.2084 6.25 24.3351 6.68667 24.5884 7C24.8484 7.31333 25.2084 7.47 25.6684 7.47C26.1218 7.47 26.4751 7.31333 26.7284 7C26.9884 6.68 27.1184 6.24333 27.1184 5.69C27.1184 5.13667 26.9884 4.70333 26.7284 4.39C26.4751 4.07 26.1218 3.91 25.6684 3.91Z" fill="#5C6270"/>
<path d="M2.72 8.13C3.16 8.13 3.55 8.04 3.89 7.86C4.23 7.68 4.49333 7.41 4.68 7.05C4.87333 6.68333 4.97 6.22667 4.97 5.68C4.97 5.11333 4.86333 4.65333 4.65 4.3C4.44333 3.94 4.16 3.67667 3.8 3.51C3.44667 3.33667 3.05 3.25 2.61 3.25C2.29 3.25 2.00333 3.29333 1.75 3.38C1.50333 3.46 1.29 3.55 1.11 3.65C0.963333 3.73667 0.866667 3.82 0.82 3.9C0.773333 3.98 0.75 4.08667 0.75 4.22V7.52H1.55V4.2C1.68333 4.12667 1.83333 4.06 2 4C2.16667 3.94 2.37 3.91 2.61 3.91C2.88333 3.91 3.13667 3.96667 3.37 4.08C3.61 4.19333 3.8 4.38 3.94 4.64C4.08667 4.89333 4.16 5.24 4.16 5.68C4.16 6.30667 4.01667 6.76333 3.73 7.05C3.45 7.33 3.07667 7.47 2.61 7.47C2.32333 7.47 2.07667 7.42333 1.87 7.33C1.67 7.23 1.50333 7.11667 1.37 6.99V7.73C1.48333 7.83 1.66333 7.92 1.91 8C2.16333 8.08667 2.43333 8.13 2.72 8.13ZM0.75 7.23V9.5C0.75 9.62667 0.786667 9.72 0.86 9.78C0.933333 9.84 1.04 9.87 1.18 9.87C1.26 9.87 1.33333 9.86 1.4 9.84C1.46667 9.82667 1.51667 9.81333 1.55 9.8V7.25L0.75 7.23ZM6.50898 5.82H5.70898V4.3C5.70898 4.14667 5.73565 4.02667 5.78898 3.94C5.84898 3.84667 5.94565 3.75667 6.07898 3.67C6.25232 3.55667 6.48898 3.46 6.78898 3.38C7.08898 3.29333 7.42232 3.25 7.78898 3.25C8.32232 3.25 8.58898 3.38333 8.58898 3.65C8.58898 3.71667 8.57898 3.78 8.55898 3.84C8.53898 3.89333 8.51232 3.94 8.47898 3.98C8.41232 3.96667 8.32565 3.95333 8.21898 3.94C8.11232 3.92667 8.00565 3.92 7.89898 3.92C7.59232 3.92 7.32232 3.95333 7.08898 4.02C6.85565 4.08 6.66232 4.15333 6.50898 4.24V5.82ZM6.50898 5.48V7.98C6.47565 7.99333 6.42565 8.00667 6.35898 8.02C6.29232 8.04 6.21898 8.05 6.13898 8.05C5.99898 8.05 5.89232 8.02333 5.81898 7.97C5.74565 7.91 5.70898 7.81667 5.70898 7.69V5.36L6.50898 5.48ZM13.2197 5.69C13.2197 6.18333 13.1264 6.61333 12.9397 6.98C12.753 7.34667 12.4897 7.63 12.1497 7.83C11.8097 8.03 11.4097 8.13 10.9497 8.13C10.4897 8.13 10.0864 8.03 9.73969 7.83C9.39969 7.63 9.13635 7.34667 8.94969 6.98C8.76302 6.61333 8.66969 6.18333 8.66969 5.69C8.66969 5.19 8.76302 4.76 8.94969 4.4C9.14302 4.03333 9.40969 3.75 9.74969 3.55C10.0964 3.35 10.4964 3.25 10.9497 3.25C11.403 3.25 11.7997 3.35 12.1397 3.55C12.4797 3.75 12.743 4.03333 12.9297 4.4C13.123 4.76 13.2197 5.19 13.2197 5.69ZM10.9497 3.91C10.503 3.91 10.1464 4.07 9.87969 4.39C9.61969 4.70333 9.48969 5.13667 9.48969 5.69C9.48969 6.25 9.61635 6.68667 9.86969 7C10.1297 7.31333 10.4897 7.47 10.9497 7.47C11.403 7.47 11.7564 7.31333 12.0097 7C12.2697 6.68 12.3997 6.24333 12.3997 5.69C12.3997 5.13667 12.2697 4.70333 12.0097 4.39C11.7564 4.07 11.403 3.91 10.9497 3.91ZM13.267 9.46C13.427 9.38667 13.5637 9.31 13.677 9.23C13.7904 9.15 13.877 9.03667 13.937 8.89C14.0037 8.75 14.037 8.55333 14.037 8.3V4.97H14.837V8.45C14.837 8.83667 14.7704 9.13667 14.637 9.35C14.5037 9.57 14.3504 9.72333 14.177 9.81C14.0037 9.90333 13.8537 9.95 13.727 9.95C13.5604 9.95 13.4437 9.9 13.377 9.8C13.317 9.70667 13.2804 9.59333 13.267 9.46ZM13.917 1.92C13.917 1.78 13.967 1.66333 14.067 1.57C14.167 1.47 14.2904 1.42 14.437 1.42C14.5904 1.42 14.7137 1.47 14.807 1.57C14.9004 1.66333 14.947 1.78 14.947 1.92C14.947 2.06 14.9004 2.18 14.807 2.28C14.7137 2.37333 14.5904 2.42 14.437 2.42C14.2904 2.42 14.167 2.37333 14.067 2.28C13.967 2.18 13.917 2.06 13.917 1.92ZM14.037 5.75V3.4C14.0704 3.38667 14.1204 3.37333 14.187 3.36C14.2604 3.34 14.337 3.33 14.417 3.33C14.557 3.33 14.6604 3.36 14.727 3.42C14.8004 3.47333 14.837 3.56667 14.837 3.7V5.86L14.037 5.75ZM16.1387 5.57L19.1587 5.16C19.132 4.79333 19.0053 4.49333 18.7787 4.26C18.552 4.02 18.2387 3.9 17.8387 3.9C17.4253 3.9 17.082 4.05 16.8087 4.35C16.542 4.64333 16.4087 5.06667 16.4087 5.62V5.84C16.4553 6.37333 16.6287 6.78 16.9287 7.06C17.2353 7.33333 17.652 7.47 18.1787 7.47C18.4587 7.47 18.712 7.42333 18.9387 7.33C19.1653 7.23667 19.3453 7.13667 19.4787 7.03C19.552 7.07667 19.6087 7.13333 19.6487 7.2C19.6953 7.26 19.7187 7.33 19.7187 7.41C19.7187 7.53667 19.6453 7.65667 19.4987 7.77C19.3587 7.87667 19.1687 7.96333 18.9287 8.03C18.6953 8.09667 18.432 8.13 18.1387 8.13C17.6253 8.13 17.1787 8.03667 16.7987 7.85C16.4253 7.66333 16.1353 7.38667 15.9287 7.02C15.7287 6.64667 15.6287 6.19333 15.6287 5.66C15.6287 5.28 15.682 4.94333 15.7887 4.65C15.902 4.35 16.0553 4.09667 16.2487 3.89C16.4487 3.68333 16.6853 3.52667 16.9587 3.42C17.232 3.30667 17.5287 3.25 17.8487 3.25C18.2553 3.25 18.612 3.33667 18.9187 3.51C19.232 3.68333 19.4753 3.92667 19.6487 4.24C19.8287 4.54667 19.9187 4.9 19.9187 5.3C19.9187 5.44667 19.8853 5.55333 19.8187 5.62C19.752 5.68 19.6587 5.71667 19.5387 5.73L16.1787 6.2L16.1387 5.57ZM21.3842 5.36V6.74C21.3842 7.00667 21.4609 7.19667 21.6142 7.31C21.7676 7.41667 21.9776 7.47 22.2442 7.47C22.3576 7.47 22.4842 7.45 22.6242 7.41C22.7642 7.37 22.8809 7.32333 22.9742 7.27C23.0142 7.31 23.0509 7.36 23.0842 7.42C23.1176 7.48 23.1342 7.55 23.1342 7.63C23.1342 7.77667 23.0476 7.89667 22.8742 7.99C22.7009 8.08333 22.4609 8.13 22.1542 8.13C21.6876 8.13 21.3076 8.02667 21.0142 7.82C20.7276 7.61333 20.5842 7.27 20.5842 6.79V5.36H21.3842ZM20.9942 3.48H23.0242C23.0442 3.50667 23.0642 3.55 23.0842 3.61C23.1042 3.67 23.1142 3.73333 23.1142 3.8C23.1142 3.90667 23.0876 3.99 23.0342 4.05C22.9809 4.11 22.9076 4.14 22.8142 4.14H20.9942V3.48ZM20.5842 5.66V2.04C20.6176 2.02667 20.6676 2.01333 20.7342 2C20.8076 1.98 20.8842 1.97 20.9642 1.97C21.1042 1.97 21.2076 2 21.2742 2.06C21.3476 2.11333 21.3842 2.20333 21.3842 2.33V5.66H20.5842ZM27.9384 5.69C27.9384 6.18333 27.8451 6.61333 27.6584 6.98C27.4718 7.34667 27.2084 7.63 26.8684 7.83C26.5284 8.03 26.1284 8.13 25.6684 8.13C25.2084 8.13 24.8051 8.03 24.4584 7.83C24.1184 7.63 23.8551 7.34667 23.6684 6.98C23.4818 6.61333 23.3884 6.18333 23.3884 5.69C23.3884 5.19 23.4818 4.76 23.6684 4.4C23.8618 4.03333 24.1284 3.75 24.4684 3.55C24.8151 3.35 25.2151 3.25 25.6684 3.25C26.1218 3.25 26.5184 3.35 26.8584 3.55C27.1984 3.75 27.4618 4.03333 27.6484 4.4C27.8418 4.76 27.9384 5.19 27.9384 5.69ZM25.6684 3.91C25.2218 3.91 24.8651 4.07 24.5984 4.39C24.3384 4.70333 24.2084 5.13667 24.2084 5.69C24.2084 6.25 24.3351 6.68667 24.5884 7C24.8484 7.31333 25.2084 7.47 25.6684 7.47C26.1218 7.47 26.4751 7.31333 26.7284 7C26.9884 6.68 27.1184 6.24333 27.1184 5.69C27.1184 5.13667 26.9884 4.70333 26.7284 4.39C26.4751 4.07 26.1218 3.91 25.6684 3.91Z" fill="white"/>
<path d="M2.72 8.13C3.16 8.13 3.55 8.04 3.89 7.86C4.23 7.68 4.49333 7.41 4.68 7.05C4.87333 6.68333 4.97 6.22667 4.97 5.68C4.97 5.11333 4.86333 4.65333 4.65 4.3C4.44333 3.94 4.16 3.67667 3.8 3.51C3.44667 3.33667 3.05 3.25 2.61 3.25C2.29 3.25 2.00333 3.29333 1.75 3.38C1.50333 3.46 1.29 3.55 1.11 3.65C0.963333 3.73667 0.866667 3.82 0.82 3.9C0.773333 3.98 0.75 4.08667 0.75 4.22V7.52H1.55V4.2C1.68333 4.12667 1.83333 4.06 2 4C2.16667 3.94 2.37 3.91 2.61 3.91C2.88333 3.91 3.13667 3.96667 3.37 4.08C3.61 4.19333 3.8 4.38 3.94 4.64C4.08667 4.89333 4.16 5.24 4.16 5.68C4.16 6.30667 4.01667 6.76333 3.73 7.05C3.45 7.33 3.07667 7.47 2.61 7.47C2.32333 7.47 2.07667 7.42333 1.87 7.33C1.67 7.23 1.50333 7.11667 1.37 6.99V7.73C1.48333 7.83 1.66333 7.92 1.91 8C2.16333 8.08667 2.43333 8.13 2.72 8.13ZM0.75 7.23V9.5C0.75 9.62667 0.786667 9.72 0.86 9.78C0.933333 9.84 1.04 9.87 1.18 9.87C1.26 9.87 1.33333 9.86 1.4 9.84C1.46667 9.82667 1.51667 9.81333 1.55 9.8V7.25L0.75 7.23ZM6.50898 5.82H5.70898V4.3C5.70898 4.14667 5.73565 4.02667 5.78898 3.94C5.84898 3.84667 5.94565 3.75667 6.07898 3.67C6.25232 3.55667 6.48898 3.46 6.78898 3.38C7.08898 3.29333 7.42232 3.25 7.78898 3.25C8.32232 3.25 8.58898 3.38333 8.58898 3.65C8.58898 3.71667 8.57898 3.78 8.55898 3.84C8.53898 3.89333 8.51232 3.94 8.47898 3.98C8.41232 3.96667 8.32565 3.95333 8.21898 3.94C8.11232 3.92667 8.00565 3.92 7.89898 3.92C7.59232 3.92 7.32232 3.95333 7.08898 4.02C6.85565 4.08 6.66232 4.15333 6.50898 4.24V5.82ZM6.50898 5.48V7.98C6.47565 7.99333 6.42565 8.00667 6.35898 8.02C6.29232 8.04 6.21898 8.05 6.13898 8.05C5.99898 8.05 5.89232 8.02333 5.81898 7.97C5.74565 7.91 5.70898 7.81667 5.70898 7.69V5.36L6.50898 5.48ZM13.2197 5.69C13.2197 6.18333 13.1264 6.61333 12.9397 6.98C12.753 7.34667 12.4897 7.63 12.1497 7.83C11.8097 8.03 11.4097 8.13 10.9497 8.13C10.4897 8.13 10.0864 8.03 9.73969 7.83C9.39969 7.63 9.13635 7.34667 8.94969 6.98C8.76302 6.61333 8.66969 6.18333 8.66969 5.69C8.66969 5.19 8.76302 4.76 8.94969 4.4C9.14302 4.03333 9.40969 3.75 9.74969 3.55C10.0964 3.35 10.4964 3.25 10.9497 3.25C11.403 3.25 11.7997 3.35 12.1397 3.55C12.4797 3.75 12.743 4.03333 12.9297 4.4C13.123 4.76 13.2197 5.19 13.2197 5.69ZM10.9497 3.91C10.503 3.91 10.1464 4.07 9.87969 4.39C9.61969 4.70333 9.48969 5.13667 9.48969 5.69C9.48969 6.25 9.61635 6.68667 9.86969 7C10.1297 7.31333 10.4897 7.47 10.9497 7.47C11.403 7.47 11.7564 7.31333 12.0097 7C12.2697 6.68 12.3997 6.24333 12.3997 5.69C12.3997 5.13667 12.2697 4.70333 12.0097 4.39C11.7564 4.07 11.403 3.91 10.9497 3.91ZM13.267 9.46C13.427 9.38667 13.5637 9.31 13.677 9.23C13.7904 9.15 13.877 9.03667 13.937 8.89C14.0037 8.75 14.037 8.55333 14.037 8.3V4.97H14.837V8.45C14.837 8.83667 14.7704 9.13667 14.637 9.35C14.5037 9.57 14.3504 9.72333 14.177 9.81C14.0037 9.90333 13.8537 9.95 13.727 9.95C13.5604 9.95 13.4437 9.9 13.377 9.8C13.317 9.70667 13.2804 9.59333 13.267 9.46ZM13.917 1.92C13.917 1.78 13.967 1.66333 14.067 1.57C14.167 1.47 14.2904 1.42 14.437 1.42C14.5904 1.42 14.7137 1.47 14.807 1.57C14.9004 1.66333 14.947 1.78 14.947 1.92C14.947 2.06 14.9004 2.18 14.807 2.28C14.7137 2.37333 14.5904 2.42 14.437 2.42C14.2904 2.42 14.167 2.37333 14.067 2.28C13.967 2.18 13.917 2.06 13.917 1.92ZM14.037 5.75V3.4C14.0704 3.38667 14.1204 3.37333 14.187 3.36C14.2604 3.34 14.337 3.33 14.417 3.33C14.557 3.33 14.6604 3.36 14.727 3.42C14.8004 3.47333 14.837 3.56667 14.837 3.7V5.86L14.037 5.75ZM16.1387 5.57L19.1587 5.16C19.132 4.79333 19.0053 4.49333 18.7787 4.26C18.552 4.02 18.2387 3.9 17.8387 3.9C17.4253 3.9 17.082 4.05 16.8087 4.35C16.542 4.64333 16.4087 5.06667 16.4087 5.62V5.84C16.4553 6.37333 16.6287 6.78 16.9287 7.06C17.2353 7.33333 17.652 7.47 18.1787 7.47C18.4587 7.47 18.712 7.42333 18.9387 7.33C19.1653 7.23667 19.3453 7.13667 19.4787 7.03C19.552 7.07667 19.6087 7.13333 19.6487 7.2C19.6953 7.26 19.7187 7.33 19.7187 7.41C19.7187 7.53667 19.6453 7.65667 19.4987 7.77C19.3587 7.87667 19.1687 7.96333 18.9287 8.03C18.6953 8.09667 18.432 8.13 18.1387 8.13C17.6253 8.13 17.1787 8.03667 16.7987 7.85C16.4253 7.66333 16.1353 7.38667 15.9287 7.02C15.7287 6.64667 15.6287 6.19333 15.6287 5.66C15.6287 5.28 15.682 4.94333 15.7887 4.65C15.902 4.35 16.0553 4.09667 16.2487 3.89C16.4487 3.68333 16.6853 3.52667 16.9587 3.42C17.232 3.30667 17.5287 3.25 17.8487 3.25C18.2553 3.25 18.612 3.33667 18.9187 3.51C19.232 3.68333 19.4753 3.92667 19.6487 4.24C19.8287 4.54667 19.9187 4.9 19.9187 5.3C19.9187 5.44667 19.8853 5.55333 19.8187 5.62C19.752 5.68 19.6587 5.71667 19.5387 5.73L16.1787 6.2L16.1387 5.57ZM21.3842 5.36V6.74C21.3842 7.00667 21.4609 7.19667 21.6142 7.31C21.7676 7.41667 21.9776 7.47 22.2442 7.47C22.3576 7.47 22.4842 7.45 22.6242 7.41C22.7642 7.37 22.8809 7.32333 22.9742 7.27C23.0142 7.31 23.0509 7.36 23.0842 7.42C23.1176 7.48 23.1342 7.55 23.1342 7.63C23.1342 7.77667 23.0476 7.89667 22.8742 7.99C22.7009 8.08333 22.4609 8.13 22.1542 8.13C21.6876 8.13 21.3076 8.02667 21.0142 7.82C20.7276 7.61333 20.5842 7.27 20.5842 6.79V5.36H21.3842ZM20.9942 3.48H23.0242C23.0442 3.50667 23.0642 3.55 23.0842 3.61C23.1042 3.67 23.1142 3.73333 23.1142 3.8C23.1142 3.90667 23.0876 3.99 23.0342 4.05C22.9809 4.11 22.9076 4.14 22.8142 4.14H20.9942V3.48ZM20.5842 5.66V2.04C20.6176 2.02667 20.6676 2.01333 20.7342 2C20.8076 1.98 20.8842 1.97 20.9642 1.97C21.1042 1.97 21.2076 2 21.2742 2.06C21.3476 2.11333 21.3842 2.20333 21.3842 2.33V5.66H20.5842ZM27.9384 5.69C27.9384 6.18333 27.8451 6.61333 27.6584 6.98C27.4718 7.34667 27.2084 7.63 26.8684 7.83C26.5284 8.03 26.1284 8.13 25.6684 8.13C25.2084 8.13 24.8051 8.03 24.4584 7.83C24.1184 7.63 23.8551 7.34667 23.6684 6.98C23.4818 6.61333 23.3884 6.18333 23.3884 5.69C23.3884 5.19 23.4818 4.76 23.6684 4.4C23.8618 4.03333 24.1284 3.75 24.4684 3.55C24.8151 3.35 25.2151 3.25 25.6684 3.25C26.1218 3.25 26.5184 3.35 26.8584 3.55C27.1984 3.75 27.4618 4.03333 27.6484 4.4C27.8418 4.76 27.9384 5.19 27.9384 5.69ZM25.6684 3.91C25.2218 3.91 24.8651 4.07 24.5984 4.39C24.3384 4.70333 24.2084 5.13667 24.2084 5.69C24.2084 6.25 24.3351 6.68667 24.5884 7C24.8484 7.31333 25.2084 7.47 25.6684 7.47C26.1218 7.47 26.4751 7.31333 26.7284 7C26.9884 6.68 27.1184 6.24333 27.1184 5.69C27.1184 5.13667 26.9884 4.70333 26.7284 4.39C26.4751 4.07 26.1218 3.91 25.6684 3.91Z" fill="#5C6270" fill-opacity="0.85"/>
<path d="M5.868 15.394C5.568 15.394 5.28 15.442 5.004 15.538C4.74 15.634 4.506 15.778 4.302 15.97C4.11 16.15 3.954 16.378 3.834 16.654C3.714 16.93 3.654 17.254 3.654 17.626C3.654 18.37 3.864 18.928 4.284 19.3C4.716 19.672 5.238 19.858 5.85 19.858C6.21 19.858 6.522 19.816 6.786 19.732C7.05 19.648 7.284 19.558 7.488 19.462C7.728 19.63 7.908 19.816 8.028 20.02C8.148 20.212 8.208 20.446 8.208 20.722C8.208 21.214 7.974 21.598 7.506 21.874C7.038 22.138 6.39 22.27 5.562 22.27C4.806 22.27 4.122 22.162 3.51 21.946C2.898 21.718 2.37 21.406 1.926 21.01C1.494 20.602 1.158 20.116 0.918 19.552C0.678 18.988 0.558 18.364 0.558 17.68C0.558 16.888 0.684 16.198 0.936 15.61C1.2 15.01 1.554 14.518 1.998 14.134C2.442 13.75 2.952 13.462 3.528 13.27C4.116 13.078 4.734 12.982 5.382 12.982C6.246 12.982 6.912 13.138 7.38 13.45C7.848 13.762 8.082 14.164 8.082 14.656C8.082 14.884 8.028 15.1 7.92 15.304C7.812 15.496 7.686 15.664 7.542 15.808C7.338 15.712 7.092 15.622 6.804 15.538C6.516 15.442 6.204 15.394 5.868 15.394ZM17.8826 21.982C17.7626 22.018 17.5706 22.054 17.3066 22.09C17.0546 22.126 16.7906 22.144 16.5146 22.144C16.2506 22.144 16.0106 22.126 15.7946 22.09C15.5906 22.054 15.4166 21.982 15.2726 21.874C15.1286 21.766 15.0146 21.622 14.9306 21.442C14.8586 21.25 14.8226 21.004 14.8226 20.704V16.708C14.8226 16.216 14.6966 15.874 14.4446 15.682C14.2046 15.478 13.9046 15.376 13.5446 15.376C13.3046 15.376 13.0766 15.406 12.8606 15.466C12.6446 15.526 12.4706 15.598 12.3386 15.682V21.982C12.2186 22.018 12.0266 22.054 11.7626 22.09C11.5106 22.126 11.2466 22.144 10.9706 22.144C10.7066 22.144 10.4666 22.126 10.2506 22.09C10.0466 22.054 9.87264 21.982 9.72864 21.874C9.58464 21.766 9.47064 21.622 9.38664 21.442C9.31464 21.25 9.27864 21.004 9.27864 20.704V10.264C9.41064 10.24 9.60264 10.21 9.85464 10.174C10.1186 10.126 10.3826 10.102 10.6466 10.102C10.9106 10.102 11.1446 10.12 11.3486 10.156C11.5646 10.192 11.7446 10.264 11.8886 10.372C12.0326 10.48 12.1406 10.63 12.2126 10.822C12.2966 11.002 12.3386 11.242 12.3386 11.542V13.306C12.4946 13.246 12.7286 13.18 13.0406 13.108C13.3646 13.024 13.7186 12.982 14.1026 12.982C15.2906 12.982 16.2146 13.282 16.8746 13.882C17.5466 14.47 17.8826 15.352 17.8826 16.528V21.982ZM23.8979 22.288C23.1899 22.288 22.5299 22.192 21.9179 22C21.3179 21.796 20.7899 21.496 20.3339 21.1C19.8899 20.704 19.5359 20.206 19.2719 19.606C19.0199 19.006 18.8939 18.304 18.8939 17.5C18.8939 16.708 19.0199 16.03 19.2719 15.466C19.5359 14.89 19.8779 14.422 20.2979 14.062C20.7179 13.69 21.1979 13.42 21.7379 13.252C22.2779 13.072 22.8299 12.982 23.3939 12.982C24.0299 12.982 24.6059 13.078 25.1219 13.27C25.6499 13.462 26.0999 13.726 26.4719 14.062C26.8559 14.398 27.1499 14.8 27.3539 15.268C27.5699 15.736 27.6779 16.246 27.6779 16.798C27.6779 17.206 27.5639 17.518 27.3359 17.734C27.1079 17.95 26.7899 18.088 26.3819 18.148L21.9359 18.814C22.0679 19.21 22.3379 19.51 22.7459 19.714C23.1539 19.906 23.6219 20.002 24.1499 20.002C24.6419 20.002 25.1039 19.942 25.5359 19.822C25.9799 19.69 26.3399 19.54 26.6159 19.372C26.8079 19.492 26.9699 19.66 27.1019 19.876C27.2339 20.092 27.2999 20.32 27.2999 20.56C27.2999 21.1 27.0479 21.502 26.5439 21.766C26.1599 21.97 25.7279 22.108 25.2479 22.18C24.7679 22.252 24.3179 22.288 23.8979 22.288ZM23.3939 15.214C23.1059 15.214 22.8539 15.262 22.6379 15.358C22.4339 15.454 22.2659 15.58 22.1339 15.736C22.0019 15.88 21.8999 16.048 21.8279 16.24C21.7679 16.42 21.7319 16.606 21.7199 16.798L24.7979 16.294C24.7619 16.054 24.6299 15.814 24.4019 15.574C24.1739 15.334 23.8379 15.214 23.3939 15.214ZM32.9168 12.982C33.6008 12.982 34.2188 13.072 34.7708 13.252C35.3348 13.42 35.8088 13.642 36.1928 13.918C36.4328 14.086 36.6188 14.272 36.7508 14.476C36.8948 14.68 36.9668 14.944 36.9668 15.268V21.568C36.9668 22.204 36.8468 22.75 36.6068 23.206C36.3668 23.674 36.0368 24.058 35.6168 24.358C35.2088 24.67 34.7228 24.898 34.1588 25.042C33.6068 25.186 33.0128 25.258 32.3768 25.258C31.2848 25.258 30.4268 25.108 29.8028 24.808C29.1788 24.52 28.8668 24.046 28.8668 23.386C28.8668 23.11 28.9208 22.864 29.0288 22.648C29.1488 22.444 29.2808 22.288 29.4248 22.18C29.7728 22.372 30.1628 22.534 30.5948 22.666C31.0388 22.798 31.4948 22.864 31.9628 22.864C32.6108 22.864 33.1268 22.756 33.5108 22.54C33.8948 22.324 34.0868 21.976 34.0868 21.496V21.208C33.5948 21.424 32.9948 21.532 32.2868 21.532C31.7468 21.532 31.2308 21.454 30.7388 21.298C30.2588 21.13 29.8328 20.878 29.4608 20.542C29.1008 20.194 28.8068 19.75 28.5788 19.21C28.3628 18.67 28.2548 18.028 28.2548 17.284C28.2548 16.552 28.3688 15.916 28.5968 15.376C28.8368 14.836 29.1608 14.392 29.5688 14.044C29.9888 13.684 30.4808 13.42 31.0448 13.252C31.6208 13.072 32.2448 12.982 32.9168 12.982ZM34.0328 15.592C33.9488 15.544 33.8228 15.496 33.6548 15.448C33.4988 15.4 33.3008 15.376 33.0608 15.376C32.4728 15.376 32.0288 15.544 31.7288 15.88C31.4408 16.204 31.2968 16.672 31.2968 17.284C31.2968 17.98 31.4408 18.484 31.7288 18.796C32.0288 19.096 32.4068 19.246 32.8628 19.246C33.3548 19.246 33.7448 19.132 34.0328 18.904V15.592ZM38.3637 13.378C38.4837 13.342 38.6697 13.306 38.9217 13.27C39.1857 13.234 39.4557 13.216 39.7317 13.216C39.9957 13.216 40.2297 13.234 40.4337 13.27C40.6497 13.306 40.8297 13.378 40.9737 13.486C41.1177 13.594 41.2257 13.744 41.2977 13.936C41.3817 14.116 41.4237 14.356 41.4237 14.656V18.526C41.4237 19.018 41.5437 19.372 41.7837 19.588C42.0237 19.792 42.3717 19.894 42.8277 19.894C43.1037 19.894 43.3257 19.87 43.4937 19.822C43.6737 19.774 43.8117 19.726 43.9077 19.678V13.378C44.0277 13.342 44.2137 13.306 44.4657 13.27C44.7297 13.234 44.9997 13.216 45.2757 13.216C45.5397 13.216 45.7737 13.234 45.9777 13.27C46.1937 13.306 46.3737 13.378 46.5177 13.486C46.6617 13.594 46.7697 13.744 46.8417 13.936C46.9257 14.116 46.9677 14.356 46.9677 14.656V20.128C46.9677 20.728 46.7157 21.178 46.2117 21.478C45.7917 21.742 45.2877 21.94 44.6997 22.072C44.1237 22.216 43.4937 22.288 42.8097 22.288C42.1617 22.288 41.5617 22.216 41.0097 22.072C40.4697 21.928 40.0017 21.706 39.6057 21.406C39.2097 21.106 38.9037 20.722 38.6877 20.254C38.4717 19.774 38.3637 19.198 38.3637 18.526V13.378ZM52.9663 22.288C52.2583 22.288 51.5983 22.192 50.9863 22C50.3863 21.796 49.8583 21.496 49.4023 21.1C48.9583 20.704 48.6043 20.206 48.3403 19.606C48.0883 19.006 47.9623 18.304 47.9623 17.5C47.9623 16.708 48.0883 16.03 48.3403 15.466C48.6043 14.89 48.9463 14.422 49.3663 14.062C49.7863 13.69 50.2663 13.42 50.8063 13.252C51.3463 13.072 51.8983 12.982 52.4623 12.982C53.0983 12.982 53.6743 13.078 54.1903 13.27C54.7183 13.462 55.1683 13.726 55.5403 14.062C55.9243 14.398 56.2183 14.8 56.4223 15.268C56.6383 15.736 56.7463 16.246 56.7463 16.798C56.7463 17.206 56.6323 17.518 56.4043 17.734C56.1763 17.95 55.8583 18.088 55.4503 18.148L51.0043 18.814C51.1363 19.21 51.4063 19.51 51.8143 19.714C52.2223 19.906 52.6903 20.002 53.2183 20.002C53.7103 20.002 54.1723 19.942 54.6043 19.822C55.0483 19.69 55.4083 19.54 55.6843 19.372C55.8763 19.492 56.0383 19.66 56.1703 19.876C56.3023 20.092 56.3683 20.32 56.3683 20.56C56.3683 21.1 56.1163 21.502 55.6123 21.766C55.2283 21.97 54.7963 22.108 54.3163 22.18C53.8363 22.252 53.3863 22.288 52.9663 22.288ZM52.4623 15.214C52.1743 15.214 51.9223 15.262 51.7063 15.358C51.5023 15.454 51.3343 15.58 51.2023 15.736C51.0703 15.88 50.9683 16.048 50.8963 16.24C50.8363 16.42 50.8003 16.606 50.7883 16.798L53.8663 16.294C53.8303 16.054 53.6983 15.814 53.4703 15.574C53.2423 15.334 52.9063 15.214 52.4623 15.214ZM57.6472 10.822C57.6472 10.366 57.7972 9.982 58.0972 9.67C58.4092 9.358 58.8172 9.202 59.3212 9.202C59.8252 9.202 60.2272 9.358 60.5272 9.67C60.8392 9.982 60.9952 10.366 60.9952 10.822C60.9952 11.278 60.8392 11.662 60.5272 11.974C60.2272 12.286 59.8252 12.442 59.3212 12.442C58.8172 12.442 58.4092 12.286 58.0972 11.974C57.7972 11.662 57.6472 11.278 57.6472 10.822ZM60.8512 21.982C60.7192 22.006 60.5212 22.036 60.2572 22.072C60.0052 22.12 59.7472 22.144 59.4832 22.144C59.2192 22.144 58.9792 22.126 58.7632 22.09C58.5592 22.054 58.3852 21.982 58.2412 21.874C58.0972 21.766 57.9832 21.622 57.8992 21.442C57.8272 21.25 57.7912 21.004 57.7912 20.704V13.378C57.9232 13.354 58.1152 13.324 58.3672 13.288C58.6312 13.24 58.8952 13.216 59.1592 13.216C59.4232 13.216 59.6572 13.234 59.8612 13.27C60.0772 13.306 60.2572 13.378 60.4012 13.486C60.5452 13.594 60.6532 13.744 60.7252 13.936C60.8092 14.116 60.8512 14.356 60.8512 14.656V21.982Z" fill="#5C6270"/>
<path d="M5.868 15.394C5.568 15.394 5.28 15.442 5.004 15.538C4.74 15.634 4.506 15.778 4.302 15.97C4.11 16.15 3.954 16.378 3.834 16.654C3.714 16.93 3.654 17.254 3.654 17.626C3.654 18.37 3.864 18.928 4.284 19.3C4.716 19.672 5.238 19.858 5.85 19.858C6.21 19.858 6.522 19.816 6.786 19.732C7.05 19.648 7.284 19.558 7.488 19.462C7.728 19.63 7.908 19.816 8.028 20.02C8.148 20.212 8.208 20.446 8.208 20.722C8.208 21.214 7.974 21.598 7.506 21.874C7.038 22.138 6.39 22.27 5.562 22.27C4.806 22.27 4.122 22.162 3.51 21.946C2.898 21.718 2.37 21.406 1.926 21.01C1.494 20.602 1.158 20.116 0.918 19.552C0.678 18.988 0.558 18.364 0.558 17.68C0.558 16.888 0.684 16.198 0.936 15.61C1.2 15.01 1.554 14.518 1.998 14.134C2.442 13.75 2.952 13.462 3.528 13.27C4.116 13.078 4.734 12.982 5.382 12.982C6.246 12.982 6.912 13.138 7.38 13.45C7.848 13.762 8.082 14.164 8.082 14.656C8.082 14.884 8.028 15.1 7.92 15.304C7.812 15.496 7.686 15.664 7.542 15.808C7.338 15.712 7.092 15.622 6.804 15.538C6.516 15.442 6.204 15.394 5.868 15.394ZM17.8826 21.982C17.7626 22.018 17.5706 22.054 17.3066 22.09C17.0546 22.126 16.7906 22.144 16.5146 22.144C16.2506 22.144 16.0106 22.126 15.7946 22.09C15.5906 22.054 15.4166 21.982 15.2726 21.874C15.1286 21.766 15.0146 21.622 14.9306 21.442C14.8586 21.25 14.8226 21.004 14.8226 20.704V16.708C14.8226 16.216 14.6966 15.874 14.4446 15.682C14.2046 15.478 13.9046 15.376 13.5446 15.376C13.3046 15.376 13.0766 15.406 12.8606 15.466C12.6446 15.526 12.4706 15.598 12.3386 15.682V21.982C12.2186 22.018 12.0266 22.054 11.7626 22.09C11.5106 22.126 11.2466 22.144 10.9706 22.144C10.7066 22.144 10.4666 22.126 10.2506 22.09C10.0466 22.054 9.87264 21.982 9.72864 21.874C9.58464 21.766 9.47064 21.622 9.38664 21.442C9.31464 21.25 9.27864 21.004 9.27864 20.704V10.264C9.41064 10.24 9.60264 10.21 9.85464 10.174C10.1186 10.126 10.3826 10.102 10.6466 10.102C10.9106 10.102 11.1446 10.12 11.3486 10.156C11.5646 10.192 11.7446 10.264 11.8886 10.372C12.0326 10.48 12.1406 10.63 12.2126 10.822C12.2966 11.002 12.3386 11.242 12.3386 11.542V13.306C12.4946 13.246 12.7286 13.18 13.0406 13.108C13.3646 13.024 13.7186 12.982 14.1026 12.982C15.2906 12.982 16.2146 13.282 16.8746 13.882C17.5466 14.47 17.8826 15.352 17.8826 16.528V21.982ZM23.8979 22.288C23.1899 22.288 22.5299 22.192 21.9179 22C21.3179 21.796 20.7899 21.496 20.3339 21.1C19.8899 20.704 19.5359 20.206 19.2719 19.606C19.0199 19.006 18.8939 18.304 18.8939 17.5C18.8939 16.708 19.0199 16.03 19.2719 15.466C19.5359 14.89 19.8779 14.422 20.2979 14.062C20.7179 13.69 21.1979 13.42 21.7379 13.252C22.2779 13.072 22.8299 12.982 23.3939 12.982C24.0299 12.982 24.6059 13.078 25.1219 13.27C25.6499 13.462 26.0999 13.726 26.4719 14.062C26.8559 14.398 27.1499 14.8 27.3539 15.268C27.5699 15.736 27.6779 16.246 27.6779 16.798C27.6779 17.206 27.5639 17.518 27.3359 17.734C27.1079 17.95 26.7899 18.088 26.3819 18.148L21.9359 18.814C22.0679 19.21 22.3379 19.51 22.7459 19.714C23.1539 19.906 23.6219 20.002 24.1499 20.002C24.6419 20.002 25.1039 19.942 25.5359 19.822C25.9799 19.69 26.3399 19.54 26.6159 19.372C26.8079 19.492 26.9699 19.66 27.1019 19.876C27.2339 20.092 27.2999 20.32 27.2999 20.56C27.2999 21.1 27.0479 21.502 26.5439 21.766C26.1599 21.97 25.7279 22.108 25.2479 22.18C24.7679 22.252 24.3179 22.288 23.8979 22.288ZM23.3939 15.214C23.1059 15.214 22.8539 15.262 22.6379 15.358C22.4339 15.454 22.2659 15.58 22.1339 15.736C22.0019 15.88 21.8999 16.048 21.8279 16.24C21.7679 16.42 21.7319 16.606 21.7199 16.798L24.7979 16.294C24.7619 16.054 24.6299 15.814 24.4019 15.574C24.1739 15.334 23.8379 15.214 23.3939 15.214ZM32.9168 12.982C33.6008 12.982 34.2188 13.072 34.7708 13.252C35.3348 13.42 35.8088 13.642 36.1928 13.918C36.4328 14.086 36.6188 14.272 36.7508 14.476C36.8948 14.68 36.9668 14.944 36.9668 15.268V21.568C36.9668 22.204 36.8468 22.75 36.6068 23.206C36.3668 23.674 36.0368 24.058 35.6168 24.358C35.2088 24.67 34.7228 24.898 34.1588 25.042C33.6068 25.186 33.0128 25.258 32.3768 25.258C31.2848 25.258 30.4268 25.108 29.8028 24.808C29.1788 24.52 28.8668 24.046 28.8668 23.386C28.8668 23.11 28.9208 22.864 29.0288 22.648C29.1488 22.444 29.2808 22.288 29.4248 22.18C29.7728 22.372 30.1628 22.534 30.5948 22.666C31.0388 22.798 31.4948 22.864 31.9628 22.864C32.6108 22.864 33.1268 22.756 33.5108 22.54C33.8948 22.324 34.0868 21.976 34.0868 21.496V21.208C33.5948 21.424 32.9948 21.532 32.2868 21.532C31.7468 21.532 31.2308 21.454 30.7388 21.298C30.2588 21.13 29.8328 20.878 29.4608 20.542C29.1008 20.194 28.8068 19.75 28.5788 19.21C28.3628 18.67 28.2548 18.028 28.2548 17.284C28.2548 16.552 28.3688 15.916 28.5968 15.376C28.8368 14.836 29.1608 14.392 29.5688 14.044C29.9888 13.684 30.4808 13.42 31.0448 13.252C31.6208 13.072 32.2448 12.982 32.9168 12.982ZM34.0328 15.592C33.9488 15.544 33.8228 15.496 33.6548 15.448C33.4988 15.4 33.3008 15.376 33.0608 15.376C32.4728 15.376 32.0288 15.544 31.7288 15.88C31.4408 16.204 31.2968 16.672 31.2968 17.284C31.2968 17.98 31.4408 18.484 31.7288 18.796C32.0288 19.096 32.4068 19.246 32.8628 19.246C33.3548 19.246 33.7448 19.132 34.0328 18.904V15.592ZM38.3637 13.378C38.4837 13.342 38.6697 13.306 38.9217 13.27C39.1857 13.234 39.4557 13.216 39.7317 13.216C39.9957 13.216 40.2297 13.234 40.4337 13.27C40.6497 13.306 40.8297 13.378 40.9737 13.486C41.1177 13.594 41.2257 13.744 41.2977 13.936C41.3817 14.116 41.4237 14.356 41.4237 14.656V18.526C41.4237 19.018 41.5437 19.372 41.7837 19.588C42.0237 19.792 42.3717 19.894 42.8277 19.894C43.1037 19.894 43.3257 19.87 43.4937 19.822C43.6737 19.774 43.8117 19.726 43.9077 19.678V13.378C44.0277 13.342 44.2137 13.306 44.4657 13.27C44.7297 13.234 44.9997 13.216 45.2757 13.216C45.5397 13.216 45.7737 13.234 45.9777 13.27C46.1937 13.306 46.3737 13.378 46.5177 13.486C46.6617 13.594 46.7697 13.744 46.8417 13.936C46.9257 14.116 46.9677 14.356 46.9677 14.656V20.128C46.9677 20.728 46.7157 21.178 46.2117 21.478C45.7917 21.742 45.2877 21.94 44.6997 22.072C44.1237 22.216 43.4937 22.288 42.8097 22.288C42.1617 22.288 41.5617 22.216 41.0097 22.072C40.4697 21.928 40.0017 21.706 39.6057 21.406C39.2097 21.106 38.9037 20.722 38.6877 20.254C38.4717 19.774 38.3637 19.198 38.3637 18.526V13.378ZM52.9663 22.288C52.2583 22.288 51.5983 22.192 50.9863 22C50.3863 21.796 49.8583 21.496 49.4023 21.1C48.9583 20.704 48.6043 20.206 48.3403 19.606C48.0883 19.006 47.9623 18.304 47.9623 17.5C47.9623 16.708 48.0883 16.03 48.3403 15.466C48.6043 14.89 48.9463 14.422 49.3663 14.062C49.7863 13.69 50.2663 13.42 50.8063 13.252C51.3463 13.072 51.8983 12.982 52.4623 12.982C53.0983 12.982 53.6743 13.078 54.1903 13.27C54.7183 13.462 55.1683 13.726 55.5403 14.062C55.9243 14.398 56.2183 14.8 56.4223 15.268C56.6383 15.736 56.7463 16.246 56.7463 16.798C56.7463 17.206 56.6323 17.518 56.4043 17.734C56.1763 17.95 55.8583 18.088 55.4503 18.148L51.0043 18.814C51.1363 19.21 51.4063 19.51 51.8143 19.714C52.2223 19.906 52.6903 20.002 53.2183 20.002C53.7103 20.002 54.1723 19.942 54.6043 19.822C55.0483 19.69 55.4083 19.54 55.6843 19.372C55.8763 19.492 56.0383 19.66 56.1703 19.876C56.3023 20.092 56.3683 20.32 56.3683 20.56C56.3683 21.1 56.1163 21.502 55.6123 21.766C55.2283 21.97 54.7963 22.108 54.3163 22.18C53.8363 22.252 53.3863 22.288 52.9663 22.288ZM52.4623 15.214C52.1743 15.214 51.9223 15.262 51.7063 15.358C51.5023 15.454 51.3343 15.58 51.2023 15.736C51.0703 15.88 50.9683 16.048 50.8963 16.24C50.8363 16.42 50.8003 16.606 50.7883 16.798L53.8663 16.294C53.8303 16.054 53.6983 15.814 53.4703 15.574C53.2423 15.334 52.9063 15.214 52.4623 15.214ZM57.6472 10.822C57.6472 10.366 57.7972 9.982 58.0972 9.67C58.4092 9.358 58.8172 9.202 59.3212 9.202C59.8252 9.202 60.2272 9.358 60.5272 9.67C60.8392 9.982 60.9952 10.366 60.9952 10.822C60.9952 11.278 60.8392 11.662 60.5272 11.974C60.2272 12.286 59.8252 12.442 59.3212 12.442C58.8172 12.442 58.4092 12.286 58.0972 11.974C57.7972 11.662 57.6472 11.278 57.6472 10.822ZM60.8512 21.982C60.7192 22.006 60.5212 22.036 60.2572 22.072C60.0052 22.12 59.7472 22.144 59.4832 22.144C59.2192 22.144 58.9792 22.126 58.7632 22.09C58.5592 22.054 58.3852 21.982 58.2412 21.874C58.0972 21.766 57.9832 21.622 57.8992 21.442C57.8272 21.25 57.7912 21.004 57.7912 20.704V13.378C57.9232 13.354 58.1152 13.324 58.3672 13.288C58.6312 13.24 58.8952 13.216 59.1592 13.216C59.4232 13.216 59.6572 13.234 59.8612 13.27C60.0772 13.306 60.2572 13.378 60.4012 13.486C60.5452 13.594 60.6532 13.744 60.7252 13.936C60.8092 14.116 60.8512 14.356 60.8512 14.656V21.982Z" fill="white"/>
<path d="M5.868 15.394C5.568 15.394 5.28 15.442 5.004 15.538C4.74 15.634 4.506 15.778 4.302 15.97C4.11 16.15 3.954 16.378 3.834 16.654C3.714 16.93 3.654 17.254 3.654 17.626C3.654 18.37 3.864 18.928 4.284 19.3C4.716 19.672 5.238 19.858 5.85 19.858C6.21 19.858 6.522 19.816 6.786 19.732C7.05 19.648 7.284 19.558 7.488 19.462C7.728 19.63 7.908 19.816 8.028 20.02C8.148 20.212 8.208 20.446 8.208 20.722C8.208 21.214 7.974 21.598 7.506 21.874C7.038 22.138 6.39 22.27 5.562 22.27C4.806 22.27 4.122 22.162 3.51 21.946C2.898 21.718 2.37 21.406 1.926 21.01C1.494 20.602 1.158 20.116 0.918 19.552C0.678 18.988 0.558 18.364 0.558 17.68C0.558 16.888 0.684 16.198 0.936 15.61C1.2 15.01 1.554 14.518 1.998 14.134C2.442 13.75 2.952 13.462 3.528 13.27C4.116 13.078 4.734 12.982 5.382 12.982C6.246 12.982 6.912 13.138 7.38 13.45C7.848 13.762 8.082 14.164 8.082 14.656C8.082 14.884 8.028 15.1 7.92 15.304C7.812 15.496 7.686 15.664 7.542 15.808C7.338 15.712 7.092 15.622 6.804 15.538C6.516 15.442 6.204 15.394 5.868 15.394ZM17.8826 21.982C17.7626 22.018 17.5706 22.054 17.3066 22.09C17.0546 22.126 16.7906 22.144 16.5146 22.144C16.2506 22.144 16.0106 22.126 15.7946 22.09C15.5906 22.054 15.4166 21.982 15.2726 21.874C15.1286 21.766 15.0146 21.622 14.9306 21.442C14.8586 21.25 14.8226 21.004 14.8226 20.704V16.708C14.8226 16.216 14.6966 15.874 14.4446 15.682C14.2046 15.478 13.9046 15.376 13.5446 15.376C13.3046 15.376 13.0766 15.406 12.8606 15.466C12.6446 15.526 12.4706 15.598 12.3386 15.682V21.982C12.2186 22.018 12.0266 22.054 11.7626 22.09C11.5106 22.126 11.2466 22.144 10.9706 22.144C10.7066 22.144 10.4666 22.126 10.2506 22.09C10.0466 22.054 9.87264 21.982 9.72864 21.874C9.58464 21.766 9.47064 21.622 9.38664 21.442C9.31464 21.25 9.27864 21.004 9.27864 20.704V10.264C9.41064 10.24 9.60264 10.21 9.85464 10.174C10.1186 10.126 10.3826 10.102 10.6466 10.102C10.9106 10.102 11.1446 10.12 11.3486 10.156C11.5646 10.192 11.7446 10.264 11.8886 10.372C12.0326 10.48 12.1406 10.63 12.2126 10.822C12.2966 11.002 12.3386 11.242 12.3386 11.542V13.306C12.4946 13.246 12.7286 13.18 13.0406 13.108C13.3646 13.024 13.7186 12.982 14.1026 12.982C15.2906 12.982 16.2146 13.282 16.8746 13.882C17.5466 14.47 17.8826 15.352 17.8826 16.528V21.982ZM23.8979 22.288C23.1899 22.288 22.5299 22.192 21.9179 22C21.3179 21.796 20.7899 21.496 20.3339 21.1C19.8899 20.704 19.5359 20.206 19.2719 19.606C19.0199 19.006 18.8939 18.304 18.8939 17.5C18.8939 16.708 19.0199 16.03 19.2719 15.466C19.5359 14.89 19.8779 14.422 20.2979 14.062C20.7179 13.69 21.1979 13.42 21.7379 13.252C22.2779 13.072 22.8299 12.982 23.3939 12.982C24.0299 12.982 24.6059 13.078 25.1219 13.27C25.6499 13.462 26.0999 13.726 26.4719 14.062C26.8559 14.398 27.1499 14.8 27.3539 15.268C27.5699 15.736 27.6779 16.246 27.6779 16.798C27.6779 17.206 27.5639 17.518 27.3359 17.734C27.1079 17.95 26.7899 18.088 26.3819 18.148L21.9359 18.814C22.0679 19.21 22.3379 19.51 22.7459 19.714C23.1539 19.906 23.6219 20.002 24.1499 20.002C24.6419 20.002 25.1039 19.942 25.5359 19.822C25.9799 19.69 26.3399 19.54 26.6159 19.372C26.8079 19.492 26.9699 19.66 27.1019 19.876C27.2339 20.092 27.2999 20.32 27.2999 20.56C27.2999 21.1 27.0479 21.502 26.5439 21.766C26.1599 21.97 25.7279 22.108 25.2479 22.18C24.7679 22.252 24.3179 22.288 23.8979 22.288ZM23.3939 15.214C23.1059 15.214 22.8539 15.262 22.6379 15.358C22.4339 15.454 22.2659 15.58 22.1339 15.736C22.0019 15.88 21.8999 16.048 21.8279 16.24C21.7679 16.42 21.7319 16.606 21.7199 16.798L24.7979 16.294C24.7619 16.054 24.6299 15.814 24.4019 15.574C24.1739 15.334 23.8379 15.214 23.3939 15.214ZM32.9168 12.982C33.6008 12.982 34.2188 13.072 34.7708 13.252C35.3348 13.42 35.8088 13.642 36.1928 13.918C36.4328 14.086 36.6188 14.272 36.7508 14.476C36.8948 14.68 36.9668 14.944 36.9668 15.268V21.568C36.9668 22.204 36.8468 22.75 36.6068 23.206C36.3668 23.674 36.0368 24.058 35.6168 24.358C35.2088 24.67 34.7228 24.898 34.1588 25.042C33.6068 25.186 33.0128 25.258 32.3768 25.258C31.2848 25.258 30.4268 25.108 29.8028 24.808C29.1788 24.52 28.8668 24.046 28.8668 23.386C28.8668 23.11 28.9208 22.864 29.0288 22.648C29.1488 22.444 29.2808 22.288 29.4248 22.18C29.7728 22.372 30.1628 22.534 30.5948 22.666C31.0388 22.798 31.4948 22.864 31.9628 22.864C32.6108 22.864 33.1268 22.756 33.5108 22.54C33.8948 22.324 34.0868 21.976 34.0868 21.496V21.208C33.5948 21.424 32.9948 21.532 32.2868 21.532C31.7468 21.532 31.2308 21.454 30.7388 21.298C30.2588 21.13 29.8328 20.878 29.4608 20.542C29.1008 20.194 28.8068 19.75 28.5788 19.21C28.3628 18.67 28.2548 18.028 28.2548 17.284C28.2548 16.552 28.3688 15.916 28.5968 15.376C28.8368 14.836 29.1608 14.392 29.5688 14.044C29.9888 13.684 30.4808 13.42 31.0448 13.252C31.6208 13.072 32.2448 12.982 32.9168 12.982ZM34.0328 15.592C33.9488 15.544 33.8228 15.496 33.6548 15.448C33.4988 15.4 33.3008 15.376 33.0608 15.376C32.4728 15.376 32.0288 15.544 31.7288 15.88C31.4408 16.204 31.2968 16.672 31.2968 17.284C31.2968 17.98 31.4408 18.484 31.7288 18.796C32.0288 19.096 32.4068 19.246 32.8628 19.246C33.3548 19.246 33.7448 19.132 34.0328 18.904V15.592ZM38.3637 13.378C38.4837 13.342 38.6697 13.306 38.9217 13.27C39.1857 13.234 39.4557 13.216 39.7317 13.216C39.9957 13.216 40.2297 13.234 40.4337 13.27C40.6497 13.306 40.8297 13.378 40.9737 13.486C41.1177 13.594 41.2257 13.744 41.2977 13.936C41.3817 14.116 41.4237 14.356 41.4237 14.656V18.526C41.4237 19.018 41.5437 19.372 41.7837 19.588C42.0237 19.792 42.3717 19.894 42.8277 19.894C43.1037 19.894 43.3257 19.87 43.4937 19.822C43.6737 19.774 43.8117 19.726 43.9077 19.678V13.378C44.0277 13.342 44.2137 13.306 44.4657 13.27C44.7297 13.234 44.9997 13.216 45.2757 13.216C45.5397 13.216 45.7737 13.234 45.9777 13.27C46.1937 13.306 46.3737 13.378 46.5177 13.486C46.6617 13.594 46.7697 13.744 46.8417 13.936C46.9257 14.116 46.9677 14.356 46.9677 14.656V20.128C46.9677 20.728 46.7157 21.178 46.2117 21.478C45.7917 21.742 45.2877 21.94 44.6997 22.072C44.1237 22.216 43.4937 22.288 42.8097 22.288C42.1617 22.288 41.5617 22.216 41.0097 22.072C40.4697 21.928 40.0017 21.706 39.6057 21.406C39.2097 21.106 38.9037 20.722 38.6877 20.254C38.4717 19.774 38.3637 19.198 38.3637 18.526V13.378ZM52.9663 22.288C52.2583 22.288 51.5983 22.192 50.9863 22C50.3863 21.796 49.8583 21.496 49.4023 21.1C48.9583 20.704 48.6043 20.206 48.3403 19.606C48.0883 19.006 47.9623 18.304 47.9623 17.5C47.9623 16.708 48.0883 16.03 48.3403 15.466C48.6043 14.89 48.9463 14.422 49.3663 14.062C49.7863 13.69 50.2663 13.42 50.8063 13.252C51.3463 13.072 51.8983 12.982 52.4623 12.982C53.0983 12.982 53.6743 13.078 54.1903 13.27C54.7183 13.462 55.1683 13.726 55.5403 14.062C55.9243 14.398 56.2183 14.8 56.4223 15.268C56.6383 15.736 56.7463 16.246 56.7463 16.798C56.7463 17.206 56.6323 17.518 56.4043 17.734C56.1763 17.95 55.8583 18.088 55.4503 18.148L51.0043 18.814C51.1363 19.21 51.4063 19.51 51.8143 19.714C52.2223 19.906 52.6903 20.002 53.2183 20.002C53.7103 20.002 54.1723 19.942 54.6043 19.822C55.0483 19.69 55.4083 19.54 55.6843 19.372C55.8763 19.492 56.0383 19.66 56.1703 19.876C56.3023 20.092 56.3683 20.32 56.3683 20.56C56.3683 21.1 56.1163 21.502 55.6123 21.766C55.2283 21.97 54.7963 22.108 54.3163 22.18C53.8363 22.252 53.3863 22.288 52.9663 22.288ZM52.4623 15.214C52.1743 15.214 51.9223 15.262 51.7063 15.358C51.5023 15.454 51.3343 15.58 51.2023 15.736C51.0703 15.88 50.9683 16.048 50.8963 16.24C50.8363 16.42 50.8003 16.606 50.7883 16.798L53.8663 16.294C53.8303 16.054 53.6983 15.814 53.4703 15.574C53.2423 15.334 52.9063 15.214 52.4623 15.214ZM57.6472 10.822C57.6472 10.366 57.7972 9.982 58.0972 9.67C58.4092 9.358 58.8172 9.202 59.3212 9.202C59.8252 9.202 60.2272 9.358 60.5272 9.67C60.8392 9.982 60.9952 10.366 60.9952 10.822C60.9952 11.278 60.8392 11.662 60.5272 11.974C60.2272 12.286 59.8252 12.442 59.3212 12.442C58.8172 12.442 58.4092 12.286 58.0972 11.974C57.7972 11.662 57.6472 11.278 57.6472 10.822ZM60.8512 21.982C60.7192 22.006 60.5212 22.036 60.2572 22.072C60.0052 22.12 59.7472 22.144 59.4832 22.144C59.2192 22.144 58.9792 22.126 58.7632 22.09C58.5592 22.054 58.3852 21.982 58.2412 21.874C58.0972 21.766 57.9832 21.622 57.8992 21.442C57.8272 21.25 57.7912 21.004 57.7912 20.704V13.378C57.9232 13.354 58.1152 13.324 58.3672 13.288C58.6312 13.24 58.8952 13.216 59.1592 13.216C59.4232 13.216 59.6572 13.234 59.8612 13.27C60.0772 13.306 60.2572 13.378 60.4012 13.486C60.5452 13.594 60.6532 13.744 60.7252 13.936C60.8092 14.116 60.8512 14.356 60.8512 14.656V21.982Z" fill="#5C6270" fill-opacity="0.85"/>
<path d="M6.48 31.456C6.48 31.084 6.372 30.814 6.156 30.646C5.952 30.466 5.67 30.376 5.31 30.376C5.07 30.376 4.83 30.406 4.59 30.466C4.362 30.526 4.164 30.616 3.996 30.736V36.982C3.876 37.018 3.684 37.054 3.42 37.09C3.168 37.126 2.904 37.144 2.628 37.144C2.364 37.144 2.124 37.126 1.908 37.09C1.704 37.054 1.53 36.982 1.386 36.874C1.242 36.766 1.128 36.622 1.044 36.442C0.972 36.25 0.936 36.004 0.936 35.704V30.304C0.936 29.98 1.002 29.716 1.134 29.512C1.278 29.308 1.47 29.122 1.71 28.954C2.118 28.666 2.628 28.432 3.24 28.252C3.864 28.072 4.554 27.982 5.31 27.982C6.666 27.982 7.71 28.282 8.442 28.882C9.174 29.47 9.54 30.292 9.54 31.348V36.982C9.42 37.018 9.228 37.054 8.964 37.09C8.712 37.126 8.448 37.144 8.172 37.144C7.908 37.144 7.668 37.126 7.452 37.09C7.248 37.054 7.074 36.982 6.93 36.874C6.786 36.766 6.672 36.622 6.588 36.442C6.516 36.25 6.48 36.004 6.48 35.704V31.456ZM19.9841 32.626C19.9841 33.37 19.8701 34.036 19.6421 34.624C19.4141 35.2 19.0901 35.686 18.6701 36.082C18.2621 36.478 17.7701 36.778 17.1941 36.982C16.6181 37.186 15.9761 37.288 15.2681 37.288C14.5601 37.288 13.9181 37.18 13.3421 36.964C12.7661 36.748 12.2681 36.442 11.8481 36.046C11.4401 35.638 11.1221 35.146 10.8941 34.57C10.6661 33.994 10.5521 33.346 10.5521 32.626C10.5521 31.918 10.6661 31.276 10.8941 30.7C11.1221 30.124 11.4401 29.638 11.8481 29.242C12.2681 28.834 12.7661 28.522 13.3421 28.306C13.9181 28.09 14.5601 27.982 15.2681 27.982C15.9761 27.982 16.6181 28.096 17.1941 28.324C17.7701 28.54 18.2621 28.852 18.6701 29.26C19.0901 29.656 19.4141 30.142 19.6421 30.718C19.8701 31.294 19.9841 31.93 19.9841 32.626ZM13.6841 32.626C13.6841 33.358 13.8221 33.922 14.0981 34.318C14.3861 34.702 14.7821 34.894 15.2861 34.894C15.7901 34.894 16.1741 34.696 16.4381 34.3C16.7141 33.904 16.8521 33.346 16.8521 32.626C16.8521 31.906 16.7141 31.354 16.4381 30.97C16.1621 30.574 15.7721 30.376 15.2681 30.376C14.7641 30.376 14.3741 30.574 14.0981 30.97C13.8221 31.354 13.6841 31.906 13.6841 32.626ZM32.7205 36.982C32.6005 37.018 32.4085 37.054 32.1445 37.09C31.8925 37.126 31.6285 37.144 31.3525 37.144C31.0885 37.144 30.8485 37.126 30.6325 37.09C30.4285 37.054 30.2545 36.982 30.1105 36.874C29.9665 36.766 29.8525 36.622 29.7685 36.442C29.6965 36.25 29.6605 36.004 29.6605 35.704V31.708C29.6605 31.216 29.5345 30.874 29.2825 30.682C29.0425 30.478 28.7425 30.376 28.3825 30.376C28.1425 30.376 27.9145 30.406 27.6985 30.466C27.4825 30.526 27.3085 30.598 27.1765 30.682V36.982C27.0565 37.018 26.8645 37.054 26.6005 37.09C26.3485 37.126 26.0845 37.144 25.8085 37.144C25.5445 37.144 25.3045 37.126 25.0885 37.09C24.8845 37.054 24.7105 36.982 24.5665 36.874C24.4225 36.766 24.3085 36.622 24.2245 36.442C24.1525 36.25 24.1165 36.004 24.1165 35.704V25.264C24.2485 25.24 24.4405 25.21 24.6925 25.174C24.9565 25.126 25.2205 25.102 25.4845 25.102C25.7485 25.102 25.9825 25.12 26.1865 25.156C26.4025 25.192 26.5825 25.264 26.7265 25.372C26.8705 25.48 26.9785 25.63 27.0505 25.822C27.1345 26.002 27.1765 26.242 27.1765 26.542V28.306C27.3325 28.246 27.5665 28.18 27.8785 28.108C28.2025 28.024 28.5565 27.982 28.9405 27.982C30.1285 27.982 31.0525 28.282 31.7125 28.882C32.3845 29.47 32.7205 30.352 32.7205 31.528V36.982ZM43.1638 32.626C43.1638 33.37 43.0498 34.036 42.8218 34.624C42.5938 35.2 42.2698 35.686 41.8498 36.082C41.4418 36.478 40.9498 36.778 40.3738 36.982C39.7978 37.186 39.1558 37.288 38.4478 37.288C37.7398 37.288 37.0978 37.18 36.5218 36.964C35.9458 36.748 35.4478 36.442 35.0278 36.046C34.6198 35.638 34.3018 35.146 34.0738 34.57C33.8458 33.994 33.7318 33.346 33.7318 32.626C33.7318 31.918 33.8458 31.276 34.0738 30.7C34.3018 30.124 34.6198 29.638 35.0278 29.242C35.4478 28.834 35.9458 28.522 36.5218 28.306C37.0978 28.09 37.7398 27.982 38.4478 27.982C39.1558 27.982 39.7978 28.096 40.3738 28.324C40.9498 28.54 41.4418 28.852 41.8498 29.26C42.2698 29.656 42.5938 30.142 42.8218 30.718C43.0498 31.294 43.1638 31.93 43.1638 32.626ZM36.8638 32.626C36.8638 33.358 37.0018 33.922 37.2778 34.318C37.5658 34.702 37.9618 34.894 38.4658 34.894C38.9698 34.894 39.3538 34.696 39.6178 34.3C39.8938 33.904 40.0318 33.346 40.0318 32.626C40.0318 31.906 39.8938 31.354 39.6178 30.97C39.3418 30.574 38.9518 30.376 38.4478 30.376C37.9438 30.376 37.5538 30.574 37.2778 30.97C37.0018 31.354 36.8638 31.906 36.8638 32.626ZM47.2167 36.982C47.0967 37.018 46.9047 37.054 46.6407 37.09C46.3887 37.126 46.1247 37.144 45.8487 37.144C45.5847 37.144 45.3447 37.126 45.1287 37.09C44.9247 37.054 44.7507 36.982 44.6067 36.874C44.4627 36.766 44.3487 36.622 44.2647 36.442C44.1927 36.25 44.1567 36.004 44.1567 35.704V30.304C44.1567 30.028 44.2047 29.794 44.3007 29.602C44.4087 29.398 44.5587 29.218 44.7507 29.062C44.9427 28.906 45.1767 28.768 45.4527 28.648C45.7407 28.516 46.0467 28.402 46.3707 28.306C46.6947 28.21 47.0307 28.138 47.3787 28.09C47.7267 28.03 48.0747 28 48.4227 28C48.9987 28 49.4547 28.114 49.7907 28.342C50.1267 28.558 50.2947 28.918 50.2947 29.422C50.2947 29.59 50.2707 29.758 50.2227 29.926C50.1747 30.082 50.1147 30.226 50.0427 30.358C49.7907 30.358 49.5327 30.37 49.2687 30.394C49.0047 30.418 48.7467 30.454 48.4947 30.502C48.2427 30.55 48.0027 30.604 47.7747 30.664C47.5587 30.712 47.3727 30.772 47.2167 30.844V36.982ZM54.5374 35.056C54.7414 35.056 54.9634 35.038 55.2034 35.002C55.4554 34.954 55.6414 34.894 55.7614 34.822V33.382L54.4654 33.49C54.1294 33.514 53.8534 33.586 53.6374 33.706C53.4214 33.826 53.3134 34.006 53.3134 34.246C53.3134 34.486 53.4034 34.684 53.5834 34.84C53.7754 34.984 54.0934 35.056 54.5374 35.056ZM54.3934 27.982C55.0414 27.982 55.6294 28.048 56.1574 28.18C56.6974 28.312 57.1534 28.516 57.5254 28.792C57.9094 29.056 58.2034 29.398 58.4074 29.818C58.6114 30.226 58.7134 30.712 58.7134 31.276V35.308C58.7134 35.62 58.6234 35.878 58.4434 36.082C58.2754 36.274 58.0714 36.442 57.8314 36.586C57.0514 37.054 55.9534 37.288 54.5374 37.288C53.9014 37.288 53.3254 37.228 52.8094 37.108C52.3054 36.988 51.8674 36.808 51.4954 36.568C51.1354 36.328 50.8534 36.022 50.6494 35.65C50.4574 35.278 50.3614 34.846 50.3614 34.354C50.3614 33.526 50.6074 32.89 51.0994 32.446C51.5914 32.002 52.3534 31.726 53.3854 31.618L55.7434 31.366V31.24C55.7434 30.892 55.5874 30.646 55.2754 30.502C54.9754 30.346 54.5374 30.268 53.9614 30.268C53.5054 30.268 53.0614 30.316 52.6294 30.412C52.1974 30.508 51.8074 30.628 51.4594 30.772C51.3034 30.664 51.1714 30.502 51.0634 30.286C50.9554 30.058 50.9014 29.824 50.9014 29.584C50.9014 29.272 50.9734 29.026 51.1174 28.846C51.2734 28.654 51.5074 28.492 51.8194 28.36C52.1674 28.228 52.5754 28.132 53.0434 28.072C53.5234 28.012 53.9734 27.982 54.3934 27.982ZM55.0414 23.608C55.6654 23.608 56.1154 23.728 56.3914 23.968C56.6794 24.208 56.8234 24.496 56.8234 24.832C56.8234 25.144 56.7394 25.408 56.5714 25.624C56.4034 25.828 56.1274 26.032 55.7434 26.236L53.4214 27.46C53.0614 27.424 52.7554 27.28 52.5034 27.028C52.2514 26.776 52.1254 26.506 52.1254 26.218C52.1254 26.074 52.1614 25.93 52.2334 25.786C52.3054 25.642 52.4254 25.51 52.5934 25.39L55.0414 23.608ZM63.1444 36.982C63.0244 37.018 62.8324 37.054 62.5684 37.09C62.3164 37.126 62.0524 37.144 61.7764 37.144C61.5124 37.144 61.2724 37.126 61.0564 37.09C60.8524 37.054 60.6784 36.982 60.5344 36.874C60.3904 36.766 60.2764 36.622 60.1924 36.442C60.1204 36.25 60.0844 36.004 60.0844 35.704V30.304C60.0844 30.028 60.1324 29.794 60.2284 29.602C60.3364 29.398 60.4864 29.218 60.6784 29.062C60.8704 28.906 61.1044 28.768 61.3804 28.648C61.6684 28.516 61.9744 28.402 62.2984 28.306C62.6224 28.21 62.9584 28.138 63.3064 28.09C63.6544 28.03 64.0024 28 64.3504 28C64.9264 28 65.3824 28.114 65.7184 28.342C66.0544 28.558 66.2224 28.918 66.2224 29.422C66.2224 29.59 66.1984 29.758 66.1504 29.926C66.1024 30.082 66.0424 30.226 65.9704 30.358C65.7184 30.358 65.4604 30.37 65.1964 30.394C64.9324 30.418 64.6744 30.454 64.4224 30.502C64.1704 30.55 63.9304 30.604 63.7024 30.664C63.4864 30.712 63.3004 30.772 63.1444 30.844V36.982ZM66.9128 25.822C66.9128 25.366 67.0628 24.982 67.3628 24.67C67.6748 24.358 68.0828 24.202 68.5868 24.202C69.0908 24.202 69.4928 24.358 69.7928 24.67C70.1048 24.982 70.2608 25.366 70.2608 25.822C70.2608 26.278 70.1048 26.662 69.7928 26.974C69.4928 27.286 69.0908 27.442 68.5868 27.442C68.0828 27.442 67.6748 27.286 67.3628 26.974C67.0628 26.662 66.9128 26.278 66.9128 25.822ZM70.1168 36.982C69.9848 37.006 69.7868 37.036 69.5228 37.072C69.2708 37.12 69.0128 37.144 68.7488 37.144C68.4848 37.144 68.2448 37.126 68.0288 37.09C67.8248 37.054 67.6508 36.982 67.5068 36.874C67.3628 36.766 67.2488 36.622 67.1648 36.442C67.0928 36.25 67.0568 36.004 67.0568 35.704V28.378C67.1888 28.354 67.3808 28.324 67.6328 28.288C67.8968 28.24 68.1608 28.216 68.4248 28.216C68.6888 28.216 68.9228 28.234 69.1268 28.27C69.3428 28.306 69.5228 28.378 69.6668 28.486C69.8108 28.594 69.9188 28.744 69.9908 28.936C70.0748 29.116 70.1168 29.356 70.1168 29.656V36.982ZM80.6189 32.626C80.6189 33.37 80.5049 34.036 80.2769 34.624C80.0489 35.2 79.7249 35.686 79.3049 36.082C78.8969 36.478 78.4049 36.778 77.8289 36.982C77.2529 37.186 76.6109 37.288 75.9029 37.288C75.1949 37.288 74.5529 37.18 73.9769 36.964C73.4009 36.748 72.9029 36.442 72.4829 36.046C72.0749 35.638 71.7569 35.146 71.5289 34.57C71.3009 33.994 71.1869 33.346 71.1869 32.626C71.1869 31.918 71.3009 31.276 71.5289 30.7C71.7569 30.124 72.0749 29.638 72.4829 29.242C72.9029 28.834 73.4009 28.522 73.9769 28.306C74.5529 28.09 75.1949 27.982 75.9029 27.982C76.6109 27.982 77.2529 28.096 77.8289 28.324C78.4049 28.54 78.8969 28.852 79.3049 29.26C79.7249 29.656 80.0489 30.142 80.2769 30.718C80.5049 31.294 80.6189 31.93 80.6189 32.626ZM74.3189 32.626C74.3189 33.358 74.4569 33.922 74.7329 34.318C75.0209 34.702 75.4169 34.894 75.9209 34.894C76.4249 34.894 76.8089 34.696 77.0729 34.3C77.3489 33.904 77.4869 33.346 77.4869 32.626C77.4869 31.906 77.3489 31.354 77.0729 30.97C76.7969 30.574 76.4069 30.376 75.9029 30.376C75.3989 30.376 75.0089 30.574 74.7329 30.97C74.4569 31.354 74.3189 31.906 74.3189 32.626Z" fill="#00718A"/>
</svg>
