<svg width="25" height="24" viewBox="0 0 25 24" fill="none" xmlns="http://www.w3.org/2000/svg">
<path d="M12.5124 2.25006C13.2464 2.25852 13.9775 2.34332 14.6939 2.5031C15.0067 2.57285 15.2406 2.83357 15.2761 3.15202L15.4463 4.67887C15.5233 5.37992 16.1152 5.9109 16.8209 5.91164C17.0105 5.91194 17.1982 5.87244 17.3734 5.79489L18.7741 5.17962C19.0654 5.05165 19.4057 5.12142 19.6232 5.35368C20.6354 6.4347 21.3892 7.73121 21.8279 9.14564C21.9225 9.45064 21.8137 9.78209 21.5566 9.97156L20.3151 10.8867C19.961 11.1469 19.7518 11.5601 19.7518 11.9995C19.7518 12.439 19.961 12.8522 20.3159 13.113L21.5585 14.0284C21.8156 14.2178 21.9246 14.5493 21.8299 14.8544C21.3914 16.2685 20.638 17.565 19.6264 18.6462C19.4091 18.8784 19.069 18.9483 18.7777 18.8207L17.3714 18.2046C16.9691 18.0285 16.507 18.0543 16.1268 18.274C15.7466 18.4938 15.4935 18.8813 15.4452 19.3178L15.2761 20.8445C15.2413 21.1593 15.0124 21.4182 14.7043 21.4916C13.2558 21.8362 11.7467 21.8362 10.2983 21.4916C9.99015 21.4182 9.76129 21.1593 9.72643 20.8445L9.5576 19.32C9.50802 18.8843 9.25459 18.498 8.87467 18.279C8.49475 18.06 8.03345 18.0344 7.63244 18.2094L6.22582 18.8257C5.93446 18.9534 5.59428 18.8833 5.37703 18.651C4.36487 17.5685 3.61144 16.2706 3.17344 14.8549C3.07911 14.5499 3.18811 14.2187 3.44509 14.0294L4.68842 13.1134C5.04256 12.8532 5.25172 12.44 5.25172 12.0005C5.25172 11.5611 5.04256 11.1479 4.68796 10.8873L3.44541 9.97291C3.18804 9.78351 3.07894 9.45184 3.17361 9.14664C3.61236 7.73221 4.36619 6.4357 5.37837 5.35468C5.59584 5.12242 5.93618 5.05265 6.22749 5.18062L7.62786 5.79579C8.03081 5.97262 8.49404 5.94591 8.87601 5.72275C9.25633 5.50215 9.50953 5.11428 9.55841 4.6777L9.72849 3.15202C9.76401 2.83341 9.99811 2.5726 10.311 2.503C11.0283 2.34348 11.7602 2.25871 12.5124 2.25006ZM12.5126 3.74996C12.0586 3.75531 11.6058 3.79449 11.1581 3.86708L11.0491 4.84425C10.9473 5.75374 10.4203 6.56108 9.63066 7.01909C8.83622 7.48323 7.86761 7.53909 7.02483 7.16923L6.12654 6.77462C5.5546 7.46879 5.09938 8.25141 4.77877 9.09174L5.57656 9.67885C6.31537 10.2217 6.75172 11.0837 6.75172 12.0005C6.75172 12.9173 6.31537 13.7794 5.57734 14.3216L4.77829 14.9103C5.09863 15.7521 5.55392 16.5362 6.12625 17.2317L7.03138 16.8351C7.86947 16.4692 8.83149 16.5228 9.62377 16.9795C10.4161 17.4362 10.9446 18.2418 11.0482 19.1527L11.1572 20.1366C12.0468 20.2878 12.9557 20.2878 13.8453 20.1366L13.9543 19.1527C14.0551 18.2421 14.583 17.4337 15.3762 16.9753C16.1695 16.5169 17.1334 16.4631 17.973 16.8305L18.8775 17.2268C19.4493 16.5323 19.9044 15.7495 20.2249 14.909L19.427 14.3212C18.6882 13.7784 18.2518 12.9163 18.2518 11.9995C18.2518 11.0827 18.6882 10.2207 19.4261 9.67853L20.2229 9.09116C19.9023 8.25067 19.447 7.4679 18.875 6.77362L17.9785 7.16743C17.6132 7.32907 17.218 7.41226 16.8189 7.41164C15.3492 7.4101 14.1158 6.30361 13.9554 4.84389L13.8464 3.86676C13.4009 3.79426 12.9529 3.75518 12.5126 3.74996ZM12.4999 8.25001C14.571 8.25001 16.2499 9.92894 16.2499 12C16.2499 14.0711 14.571 15.75 12.4999 15.75C10.4289 15.75 8.74994 14.0711 8.74994 12C8.74994 9.92894 10.4289 8.25001 12.4999 8.25001ZM12.4999 9.75001C11.2573 9.75001 10.2499 10.7574 10.2499 12C10.2499 13.2427 11.2573 14.25 12.4999 14.25C13.7426 14.25 14.7499 13.2427 14.7499 12C14.7499 10.7574 13.7426 9.75001 12.4999 9.75001Z" fill="#999999"/>
</svg>
